<svg xmlns="http://www.w3.org/2000/svg" xmlns:xlink="http://www.w3.org/1999/xlink" x="0px" y="0px" viewBox="0 0 64 64" xml:space="preserve">
<path fill="#969696" d="M0,0h64v64H0V0z"/>
<g>
	<rect x="15.5" y="18.4" style="fill:none;stroke:#FFFFFF;stroke-width:3;stroke-miterlimit:10;" width="39.7" height="29"/>
	<polyline style="fill:none;stroke:#FFFFFF;stroke-width:3;stroke-miterlimit:10;" points="15.5,23.3 9.4,23.3 9.4,47.4 15.5,47.4 	"/>
	<rect x="20.9" y="23.3" fill="#FFFFFF" width="28.8" height="5.5"/>
	<rect x="20.9" y="31.4" fill="#FFFFFF" width="17.5" height="1.2"/>
	<rect x="20.9" y="33.7" fill="#FFFFFF" width="17.5" height="1.2"/>
	<rect x="20.9" y="36" fill="#FFFFFF" width="17.5" height="1.2"/>
	<rect x="20.9" y="40.6" fill="#FFFFFF" width="17.5" height="1.2"/>
	<rect x="20.9" y="42.9" fill="#FFFFFF" width="17.5" height="1.2"/>
	<g>
		<path fill="#FFFFFF" d="M49.7,36.9c0,0.5-0.1,1-0.2,1.4c-0.1,0.4-0.3,0.8-0.6,1.1S48.4,40,48,40.2s-0.7,0.3-1,0.3
			c-0.3,0-0.5,0-0.7-0.1c-0.2-0.1-0.3-0.1-0.4-0.3c-0.1-0.1-0.2-0.2-0.2-0.4c0-0.1-0.1-0.3-0.1-0.4c-0.2,0.3-0.5,0.5-0.8,0.7
			c-0.3,0.2-0.7,0.3-1,0.3c-0.5,0-0.9-0.2-1.2-0.5s-0.4-0.8-0.4-1.3c0-0.5,0.1-1,0.2-1.4c0.2-0.5,0.4-0.9,0.7-1.2
			c0.3-0.3,0.6-0.6,1.1-0.8c0.4-0.2,0.9-0.3,1.5-0.3c0.3,0,0.6,0,0.9,0.1c0.3,0.1,0.6,0.2,0.8,0.3c-0.2,0.5-0.3,1.1-0.4,1.6
			c-0.1,0.5-0.2,1.1-0.3,1.6c0,0.2-0.1,0.4-0.1,0.6s0,0.2,0,0.3s0.1,0.1,0.2,0.2c0.1,0,0.2,0,0.3,0c0.2,0,0.4-0.1,0.5-0.2
			s0.3-0.3,0.4-0.5c0.1-0.2,0.2-0.5,0.3-0.8c0.1-0.3,0.1-0.7,0.1-1.1c0-0.5-0.1-0.9-0.2-1.3c-0.1-0.4-0.4-0.7-0.6-1
			c-0.3-0.3-0.6-0.5-1-0.6c-0.4-0.2-0.9-0.2-1.4-0.2c-0.5,0-0.9,0.1-1.4,0.3c-0.4,0.2-0.8,0.5-1.2,0.9s-0.6,0.8-0.8,1.3
			c-0.2,0.5-0.3,1-0.3,1.6c0,0.6,0.1,1,0.3,1.5s0.4,0.8,0.7,1s0.7,0.5,1.1,0.6c0.4,0.1,0.8,0.2,1.3,0.2c0.3,0,0.6,0,0.9-0.1
			c0.3,0,0.6-0.1,0.8-0.2l0.2,1c-0.3,0.1-0.6,0.2-0.9,0.2c-0.3,0.1-0.7,0.1-1,0.1c-0.7,0-1.3-0.1-1.9-0.3c-0.6-0.2-1.1-0.5-1.5-0.9
			s-0.8-0.8-1-1.4c-0.2-0.6-0.4-1.2-0.4-1.9c0-0.7,0.1-1.4,0.4-2c0.3-0.6,0.6-1.2,1.1-1.7c0.5-0.5,1-0.9,1.6-1.2
			c0.6-0.3,1.3-0.4,2-0.4c0.7,0,1.3,0.1,1.9,0.3c0.6,0.2,1.1,0.5,1.5,0.9c0.4,0.4,0.7,0.8,1,1.3C49.6,35.7,49.7,36.3,49.7,36.9z
			 M46,35.8c-0.1,0-0.1-0.1-0.2-0.1c-0.1,0-0.1,0-0.2,0c-0.4,0-0.7,0.1-0.9,0.3c-0.2,0.2-0.5,0.4-0.6,0.7c-0.2,0.3-0.3,0.6-0.3,0.9
			s-0.1,0.7-0.1,1c0,0.2,0,0.4,0.1,0.6c0.1,0.1,0.2,0.2,0.4,0.2c0.1,0,0.3,0,0.4-0.1c0.2-0.1,0.3-0.2,0.4-0.3
			c0.1-0.1,0.3-0.3,0.4-0.5c0.1-0.2,0.2-0.4,0.2-0.6L46,35.8z"/>
	</g>
</g>
</svg>
