<svg xmlns="http://www.w3.org/2000/svg" viewBox="0 0 64 64"><path fill="#969696" d="M0 0h64v64H0V0z"/><path fill="none" stroke="#fff" stroke-width="3" stroke-miterlimit="10" d="M15.5 18.4h39.7v29H15.5zM15.5 23.3H9.4v24.1h6.1"/><path fill="#FFF" d="M20.9 23.3h28.8v5.5H20.9zM20.9 31.4h17.5v1.2H20.9zM20.9 33.7h17.5v1.2H20.9zM20.9 36h17.5v1.2H20.9zM20.9 40.6h17.5v1.2H20.9zM20.9 42.9h17.5v1.2H20.9zM49.7 36.9c0 .5-.1 1-.2 1.4-.1.4-.3.8-.6 1.1s-.5.6-.9.8-.7.3-1 .3c-.3 0-.5 0-.7-.1-.2-.1-.3-.1-.4-.3-.1-.1-.2-.2-.2-.4 0-.1-.1-.3-.1-.4-.2.3-.5.5-.8.7-.3.2-.7.3-1 .3-.5 0-.9-.2-1.2-.5s-.4-.8-.4-1.3.1-1 .2-1.4c.2-.5.4-.9.7-1.2.3-.3.6-.6 1.1-.8.4-.2.9-.3 1.5-.3.3 0 .6 0 .9.1.3.1.6.2.8.3-.2.5-.3 1.1-.4 1.6-.1.5-.2 1.1-.3 1.6 0 .2-.1.4-.1.6v.3c0 .1.1.1.2.2h.3c.2 0 .4-.1.5-.2s.3-.3.4-.5c.1-.2.2-.5.3-.8.1-.3.1-.7.1-1.1 0-.5-.1-.9-.2-1.3s-.4-.7-.6-1c-.3-.3-.6-.5-1-.6-.4-.2-.9-.2-1.4-.2-.5 0-.9.1-1.4.3-.4.2-.8.5-1.2.9s-.6.8-.8 1.3c-.2.5-.3 1-.3 1.6 0 .6.1 1 .3 1.5s.4.8.7 1 .7.5 1.1.6c.4.1.8.2 1.3.2.3 0 .6 0 .9-.1.3 0 .6-.1.8-.2l.2 1c-.3.1-.6.2-.9.2-.3.1-.7.1-1 .1-.7 0-1.3-.1-1.9-.3-.6-.2-1.1-.5-1.5-.9s-.8-.8-1-1.4c-.2-.6-.4-1.2-.4-1.9s.1-1.4.4-2c.3-.6.6-1.2 1.1-1.7.5-.5 1-.9 1.6-1.2.6-.3 1.3-.4 2-.4s1.3.1 1.9.3c.6.2 1.1.5 1.5.9.4.4.7.8 1 1.3 0 .8.1 1.4.1 2zM46 35.8c-.1 0-.1-.1-.2-.1h-.2c-.4 0-.7.1-.9.3-.2.2-.5.4-.6.7-.2.3-.3.6-.3.9s-.1.7-.1 1c0 .2 0 .4.1.6.1.1.2.2.4.2.1 0 .3 0 .4-.1.2-.1.3-.2.4-.3.1-.1.3-.3.4-.5.1-.2.2-.4.2-.6l.4-2.1z"/></svg>