<svg xmlns="http://www.w3.org/2000/svg" width="1792" height="1792"><path fill="#fff" stroke="#000" stroke-width=".967" d="M66.5 283.105h1649.483v1234.569H66.5z"/><path d="M1664 1440V672q-32 36-69 66-268 206-426 338-51 43-83 67t-86.5 48.5Q945 1216 897 1216h-2q-48 0-102.5-24.5T706 1143q-32-24-83-67-158-132-426-338-37-30-69-66v768q0 13 9.5 22.5t22.5 9.5h1472q13 0 22.5-9.5t9.5-22.5zm0-1051v-24.5l-.5-13-3-12.5-5.5-9-9-7.5-14-2.5H160q-13 0-22.5 9.5T128 352q0 168 147 284 193 152 401 317 6 5 35 29.5t46 37.5q17 13 44.5 31.5T852 1079q23 9 43 9h2q20 0 43-9t50.5-27.5q27.5-18.5 44.5-31.5t46-37.5q29-24.5 35-29.5 208-165 401-317 54-43 100.5-115.5T1664 389zm128-37v1088q0 66-47 113t-113 47H160q-66 0-113-47T0 1440V352q0-66 47-113t113-47h1472q66 0 113 47t47 113z" fill="#646464"/><path d="M1713.728 1760.632H751.031c-57.053 0-93.635-60.599-67.287-111.166l481.348-925.202c28.374-54.317 106.2-54.317 134.575 0l481.349 925.202c26.347 50.669-10.134 111.166-67.187 111.166z" fill="#fbb03b"/><path d="M1232.38 814.757l439.496 844.539H792.883l439.497-844.539m0-131.332c-26.55 0-53 13.68-67.187 40.94l-481.348 925.203c-26.449 50.263 10.032 111.064 66.983 111.064h962.697c57.053 0 93.635-60.599 67.288-111.166l-481.146-925.202c-14.288-26.956-40.94-40.636-67.287-40.636z" opacity=".2"/><path d="M1283.048 1456.623v101.336H1181.71v-101.336zm0-405.346v304.01H1181.71v-304.01z" fill="#fff"/></svg>