<svg xmlns="http://www.w3.org/2000/svg" width="50" height="50"><path d="M2.1 15.4h34.218v24.1H2.1z" fill="#fff"/><path d="M7.742 10.5H47.9v28.93H7.742z" fill="#fff"/><path fill="none" stroke="#969696" stroke-width="3" stroke-miterlimit="10" d="M8.2 10.5h39.7v29H8.2zM8.2 15.4H2.1v24.1h6.1"/><path fill="#969696" d="M13.6 15.4h28.8v5.5H13.6zM13.6 23.5h17.5v1.2H13.6zM13.6 25.8h17.5V27H13.6zM13.6 28.1h17.5v1.2H13.6zM13.6 32.7h17.5v1.2H13.6zM13.6 35h17.5v1.2H13.6zM42.4 29c0 .5-.1 1-.2 1.4-.1.4-.3.8-.6 1.1-.3.3-.5.6-.9.8-.4.2-.7.3-1 .3-.3 0-.5 0-.7-.1-.2-.1-.3-.1-.4-.3-.1-.1-.2-.2-.2-.4 0-.1-.1-.3-.1-.4-.2.3-.5.5-.8.7-.3.2-.7.3-1 .3-.5 0-.9-.2-1.2-.5-.3-.3-.4-.8-.4-1.3s.1-1 .2-1.4c.2-.5.4-.9.7-1.2.3-.3.6-.6 1.1-.8.4-.2.9-.3 1.5-.3.3 0 .6 0 .9.1.3.1.6.2.8.3-.2.5-.3 1.1-.4 1.6-.1.5-.2 1.1-.3 1.6 0 .2-.1.4-.1.6v.3c0 .1.1.1.2.2h.3c.2 0 .4-.1.5-.2.1-.1.3-.3.4-.5.1-.2.2-.5.3-.8.1-.3.1-.7.1-1.1 0-.5-.1-.9-.2-1.3s-.4-.7-.6-1c-.3-.3-.6-.5-1-.6-.4-.2-.9-.2-1.4-.2-.5 0-.9.1-1.4.3-.4.2-.8.5-1.2.9-.4.4-.6.8-.8 1.3-.2.5-.3 1-.3 1.6 0 .6.1 1 .3 1.5.2.5.4.8.7 1 .3.2.7.5 1.1.6.4.1.8.2 1.3.2.3 0 .6 0 .9-.1.3 0 .6-.1.8-.2l.2 1c-.3.1-.6.2-.9.2-.3.1-.7.1-1 .1-.7 0-1.3-.1-1.9-.3-.6-.2-1.1-.5-1.5-.9-.4-.4-.8-.8-1-1.4-.2-.6-.4-1.2-.4-1.9s.1-1.4.4-2c.3-.6.6-1.2 1.1-1.7.5-.5 1-.9 1.6-1.2.6-.3 1.3-.4 2-.4s1.3.1 1.9.3c.6.2 1.1.5 1.5.9.4.4.7.8 1 1.3 0 .8.1 1.4.1 2zm-3.7-1.1c-.1 0-.1-.1-.2-.1h-.2c-.4 0-.7.1-.9.3-.2.2-.5.4-.6.7-.2.3-.3.6-.3.9 0 .3-.1.7-.1 1 0 .2 0 .4.1.6.1.1.2.2.4.2.1 0 .3 0 .4-.1.2-.1.3-.2.4-.3.1-.1.3-.3.4-.5.1-.2.2-.4.2-.6z"/></svg>